<svg width="24" height="24" viewBox="0 0 24 24" fill="none" xmlns="http://www.w3.org/2000/svg">
<g clipPath="url(#clip0_4397_376)">
<path d="M19 8V16C19 16.553 18.553 17 18 17C17.447 17 17 16.553 17 16V8C17 7.447 17.447 7 18 7C18.553 7 19 7.447 19 8ZM14 0C13.447 0 13 0.447 13 1V23C13 23.553 13.447 24 14 24C14.553 24 15 23.553 15 23V1C15 0.447 14.553 0 14 0ZM22 4C21.447 4 21 4.447 21 5V19C21 19.553 21.447 20 22 20C22.553 20 23 19.553 23 19V5C23 4.447 22.553 4 22 4ZM10 4C9.447 4 9 4.447 9 5V19C9 19.553 9.447 20 10 20C10.553 20 11 19.553 11 19V5C11 4.447 10.553 4 10 4ZM6 7C5.447 7 5 7.447 5 8V16C5 16.553 5.447 17 6 17C6.553 17 7 16.553 7 16V8C7 7.447 6.553 7 6 7ZM2 9C1.447 9 1 9.447 1 10V14C1 14.553 1.447 15 2 15C2.553 15 3 14.553 3 14V10C3 9.447 2.553 9 2 9Z" fill="white"/>
</g>
<defs>
<clipPath id="clip0_4397_376">
<rect width="24" height="24" fill="white"/>
</clipPath>
</defs>
</svg>
