<svg width="72" height="72" viewBox="0 0 72 72" fill="none" xmlns="http://www.w3.org/2000/svg">
<path d="M61.4131 52.4424H5.51953V62.1576H61.4131C64.0963 62.1576 66.2707 59.9832 66.2707 57.3C66.2707 54.6168 64.0963 52.4424 61.4131 52.4424Z" fill="white"/>
<path d="M38.2908 9.84277H33.4668V46.378H38.2908V9.84277Z" fill="white"/>
<path d="M27.6461 20.206C27.6461 14.5468 23.1221 9.90757 17.5541 9.84277H5.54688V14.77H17.4845C20.4125 14.7964 22.7909 17.2348 22.7909 20.206C22.7909 23.182 20.4053 25.6204 17.4749 25.642V25.6444H6.05807V30.5716H17.4821C20.4101 30.5956 22.7933 33.034 22.7933 36.0076C22.7933 38.9812 20.4125 41.4172 17.4869 41.4436H5.54688V46.3708H17.5541C23.1221 46.306 27.6461 41.6644 27.6461 36.0076C27.6461 32.8492 26.2373 30.01 24.0245 28.1068C26.2373 26.2036 27.6461 23.3644 27.6461 20.206Z" fill="white"/>
<path d="M49.3907 31.5576H54.7211H54.7547C55.0451 31.5504 57.6827 31.4424 60.4043 30.1608C64.3211 28.3176 66.4787 24.912 66.4787 20.5728C66.4787 16.3272 64.3475 13.008 60.4787 11.2296C57.8027 10.0008 55.2155 9.91203 54.9275 9.90723H44.1875V14.76H54.8339C55.0403 14.7696 56.8475 14.8728 58.5587 15.6912C60.6491 16.6896 61.6235 18.2424 61.6235 20.5728C61.6235 23.0232 60.6131 24.6576 58.4459 25.716C56.6939 26.5728 54.8435 26.6928 54.6395 26.7024H44.7491H44.6339H44.6051V29.1912V29.2368V46.3392H66.2531V41.556H49.3907V31.5576Z" fill="white"/>
<path d="M10.4451 60.9724C9.64108 60.9724 8.99548 60.7612 8.50588 60.3364C8.01628 59.9116 7.77148 59.3308 7.77148 58.594H9.28108C9.28108 58.7596 9.31228 58.906 9.37468 59.0332C9.43708 59.1604 9.52348 59.266 9.63148 59.3452C9.73948 59.4244 9.86428 59.4844 10.0011 59.5228C10.1403 59.5612 10.2843 59.5828 10.4355 59.5828C10.7379 59.5828 10.9995 59.5108 11.2203 59.3644C11.4411 59.2204 11.5515 59.0212 11.5515 58.7716C11.5515 58.666 11.5251 58.5724 11.4723 58.4908C11.4195 58.4092 11.3595 58.342 11.2899 58.294C11.2203 58.2436 11.1147 58.1932 10.9731 58.1404C10.8315 58.0876 10.7115 58.0492 10.6131 58.0228C10.5147 57.9964 10.3659 57.9604 10.1691 57.9148C10.0107 57.8764 9.89308 57.8452 9.81388 57.826C9.73468 57.8068 9.61708 57.7732 9.46348 57.7276C9.30988 57.682 9.18988 57.6412 9.10828 57.6052C9.02668 57.5692 8.91868 57.5188 8.78668 57.4516C8.65468 57.3868 8.55388 57.3196 8.47948 57.2548C8.40748 57.19 8.32588 57.106 8.23708 57.0076C8.14828 56.9092 8.08108 56.806 8.03548 56.6956C7.98988 56.5876 7.94908 56.4628 7.91788 56.3212C7.88428 56.1796 7.86748 56.0308 7.86748 55.8724C7.86748 55.2148 8.09068 54.7036 8.53948 54.3412C8.98588 53.9788 9.60028 53.7988 10.3755 53.7988C11.1579 53.7988 11.7699 53.9956 12.2067 54.3916C12.6435 54.7876 12.8643 55.33 12.8643 56.0212H11.3835C11.3835 55.738 11.2827 55.522 11.0835 55.3756C10.8819 55.2268 10.6347 55.1524 10.3371 55.1524C10.0731 55.1524 9.84508 55.2076 9.65068 55.3204C9.45628 55.4332 9.36028 55.594 9.36028 55.8052C9.36028 55.9036 9.38428 55.9924 9.43468 56.0668C9.48508 56.1436 9.54268 56.206 9.60748 56.254C9.67228 56.3044 9.77548 56.3524 9.91468 56.4028C10.0539 56.4532 10.1691 56.4892 10.2651 56.5108C10.3611 56.5348 10.5027 56.5684 10.6947 56.614C10.9059 56.6668 11.0643 56.7076 11.1675 56.7364C11.2731 56.7652 11.4243 56.8156 11.6211 56.8852C11.8179 56.9548 11.9715 57.022 12.0795 57.0868C12.1875 57.1516 12.3147 57.2404 12.4587 57.3484C12.6027 57.4564 12.7131 57.5764 12.7899 57.7036C12.8643 57.8308 12.9315 57.9868 12.9867 58.1668C13.0419 58.3468 13.0707 58.5436 13.0707 58.7548C13.0707 59.2348 12.9483 59.6476 12.7059 59.9884C12.4611 60.3316 12.1491 60.5812 11.7627 60.7396C11.3787 60.8932 10.9395 60.9724 10.4451 60.9724Z" fill="black"/>
<path d="M18.3238 60.9816C17.659 60.9816 17.0542 60.8256 16.507 60.5136C15.9598 60.2016 15.5326 59.7696 15.223 59.22C14.9134 58.6704 14.7598 58.0608 14.7598 57.3888C14.7598 56.3616 15.1006 55.5024 15.7822 54.8112C16.4638 54.12 17.311 53.7744 18.3238 53.7744C19.1662 53.7744 19.8934 54.0288 20.5054 54.5352C21.1174 55.0416 21.5062 55.7064 21.6694 56.5296H20.1694C20.0782 56.2608 19.9414 56.0256 19.7638 55.824C19.5862 55.6224 19.375 55.4688 19.1278 55.3608C18.8806 55.2528 18.6118 55.1976 18.3238 55.1976C17.7382 55.1976 17.2486 55.4064 16.8574 55.824C16.4662 56.2416 16.2694 56.7624 16.2694 57.384C16.2694 58.0056 16.4662 58.524 16.8574 58.9392C17.2486 59.3544 17.7382 59.5608 18.3238 59.5608C18.7774 59.5608 19.1686 59.4336 19.4998 59.1768C19.8286 58.92 20.0566 58.572 20.1814 58.1304H21.691C21.5326 58.9872 21.1462 59.676 20.5318 60.1992C19.915 60.72 19.1806 60.9816 18.3238 60.9816Z" fill="black"/>
<path d="M27.753 53.9238H29.2434V60.8358H27.753V57.9822H25.1562V60.8358H23.6562V53.9238H25.1562V56.5902H27.753V53.9238Z" fill="black"/>
<path d="M35 59.5709C35.408 59.5709 35.7776 59.4773 36.1064 59.2901C36.4352 59.1029 36.6944 58.8413 36.8816 58.5053C37.0688 58.1693 37.1624 57.7949 37.1624 57.3797C37.1624 56.7533 36.956 56.2325 36.5456 55.8149C36.1352 55.3973 35.6216 55.1885 35.0048 55.1885C34.3904 55.1885 33.872 55.3973 33.4544 55.8149C33.0368 56.2325 32.828 56.7533 32.828 57.3797C32.828 58.0061 33.0368 58.5269 33.4544 58.9445C33.8744 59.3621 34.388 59.5709 35 59.5709ZM35 60.9821C33.9464 60.9821 33.0704 60.6389 32.3696 59.9501C31.6688 59.2613 31.3184 58.4045 31.3184 57.3773C31.3184 56.3501 31.6688 55.4933 32.3696 54.8045C33.0704 54.1157 33.9464 53.7725 35 53.7725C35.6912 53.7725 36.3176 53.9285 36.8816 54.2405C37.4432 54.5525 37.8848 54.9845 38.1992 55.5341C38.516 56.0837 38.672 56.6981 38.672 57.3749C38.672 58.4093 38.324 59.2661 37.6256 59.9525C36.9296 60.6413 36.0536 60.9821 35 60.9821Z" fill="black"/>
<path d="M44.0136 59.5709C44.4216 59.5709 44.7912 59.4773 45.12 59.2901C45.4488 59.1029 45.708 58.8413 45.8952 58.5053C46.0824 58.1693 46.176 57.7949 46.176 57.3797C46.176 56.7533 45.9696 56.2325 45.5592 55.8149C45.1488 55.3973 44.6352 55.1885 44.0184 55.1885C43.404 55.1885 42.8856 55.3973 42.468 55.8149C42.0504 56.2325 41.8416 56.7533 41.8416 57.3797C41.8416 58.0061 42.0504 58.5269 42.468 58.9445C42.8856 59.3621 43.4016 59.5709 44.0136 59.5709ZM44.0136 60.9821C42.96 60.9821 42.084 60.6389 41.3832 59.9501C40.6824 59.2613 40.332 58.4045 40.332 57.3773C40.332 56.3501 40.6824 55.4933 41.3832 54.8045C42.084 54.1157 42.96 53.7725 44.0136 53.7725C44.7048 53.7725 45.3312 53.9285 45.8952 54.2405C46.4568 54.5525 46.8984 54.9845 47.2128 55.5341C47.5296 56.0837 47.6856 56.6981 47.6856 57.3749C47.6856 58.4093 47.3376 59.2661 46.6392 59.9525C45.9432 60.6413 45.0672 60.9821 44.0136 60.9821Z" fill="black"/>
<path d="M51.25 59.4438H53.8972V60.8358H49.75V53.9238H51.25V59.4438Z" fill="black"/>
</svg>
