<svg width="16" height="15" viewBox="0 0 16 15" fill="none" xmlns="http://www.w3.org/2000/svg">
<path d="M12.6667 1.50033H8.31467C8.21156 1.50101 8.10965 1.47821 8.01667 1.43366L5.91267 0.377659C5.63493 0.239356 5.32893 0.16725 5.01867 0.166992H3.33333C2.4496 0.168051 1.60237 0.51958 0.97748 1.14447C0.352588 1.76936 0.00105857 2.6166 0 3.50033L0 11.5003C0.00105857 12.3841 0.352588 13.2313 0.97748 13.8562C1.60237 14.4811 2.4496 14.8326 3.33333 14.8337H12.6667C13.5504 14.8326 14.3976 14.4811 15.0225 13.8562C15.6474 13.2313 15.9989 12.3841 16 11.5003V4.83366C15.9989 3.94993 15.6474 3.1027 15.0225 2.47781C14.3976 1.85291 13.5504 1.50138 12.6667 1.50033ZM3.33333 1.50033H5.01867C5.12177 1.49964 5.22368 1.52244 5.31667 1.56699L7.42067 2.61966C7.69813 2.75912 8.00413 2.83237 8.31467 2.83366H12.6667C13.0654 2.83431 13.4548 2.95411 13.7849 3.17767C14.115 3.40123 14.3708 3.71835 14.5193 4.08833L1.33333 4.16299V3.50033C1.33333 2.96989 1.54405 2.46118 1.91912 2.08611C2.29419 1.71104 2.8029 1.50033 3.33333 1.50033ZM12.6667 13.5003H3.33333C2.8029 13.5003 2.29419 13.2896 1.91912 12.9145C1.54405 12.5395 1.33333 12.0308 1.33333 11.5003V5.49633L14.6667 5.42099V11.5003C14.6667 12.0308 14.456 12.5395 14.0809 12.9145C13.7058 13.2896 13.1971 13.5003 12.6667 13.5003Z" fill="white"/>
</svg>
