<svg width="16" height="17" viewBox="0 0 16 17" fill="none" xmlns="http://www.w3.org/2000/svg">
<g clip-path="url(#clip0_6025_10173)">
<path d="M14.0007 3.16667H11.934C11.7793 2.41428 11.3699 1.73823 10.7748 1.25248C10.1798 0.766727 9.43545 0.50097 8.66732 0.5L7.33398 0.5C6.56585 0.50097 5.82153 0.766727 5.22648 1.25248C4.63144 1.73823 4.22205 2.41428 4.06732 3.16667H2.00065C1.82384 3.16667 1.65427 3.2369 1.52925 3.36193C1.40422 3.48695 1.33398 3.65652 1.33398 3.83333C1.33398 4.01014 1.40422 4.17971 1.52925 4.30474C1.65427 4.42976 1.82384 4.5 2.00065 4.5H2.66732V13.1667C2.66838 14.0504 3.01991 14.8976 3.6448 15.5225C4.26969 16.1474 5.11692 16.4989 6.00065 16.5H10.0007C10.8844 16.4989 11.7316 16.1474 12.3565 15.5225C12.9814 14.8976 13.3329 14.0504 13.334 13.1667V4.5H14.0007C14.1775 4.5 14.347 4.42976 14.4721 4.30474C14.5971 4.17971 14.6673 4.01014 14.6673 3.83333C14.6673 3.65652 14.5971 3.48695 14.4721 3.36193C14.347 3.2369 14.1775 3.16667 14.0007 3.16667ZM7.33398 1.83333H8.66732C9.08083 1.83384 9.48407 1.96225 9.82173 2.20096C10.1594 2.43967 10.4149 2.77699 10.5533 3.16667H5.44798C5.58637 2.77699 5.84192 2.43967 6.17958 2.20096C6.51723 1.96225 6.92047 1.83384 7.33398 1.83333ZM12.0007 13.1667C12.0007 13.6971 11.7899 14.2058 11.4149 14.5809C11.0398 14.956 10.5311 15.1667 10.0007 15.1667H6.00065C5.47022 15.1667 4.96151 14.956 4.58644 14.5809C4.21136 14.2058 4.00065 13.6971 4.00065 13.1667V4.5H12.0007V13.1667Z" fill="#F04438"/>
<path d="M6.66667 12.5003C6.84348 12.5003 7.01305 12.4301 7.13807 12.3051C7.2631 12.18 7.33333 12.0105 7.33333 11.8337V7.83366C7.33333 7.65685 7.2631 7.48728 7.13807 7.36225C7.01305 7.23723 6.84348 7.16699 6.66667 7.16699C6.48986 7.16699 6.32029 7.23723 6.19526 7.36225C6.07024 7.48728 6 7.65685 6 7.83366V11.8337C6 12.0105 6.07024 12.18 6.19526 12.3051C6.32029 12.4301 6.48986 12.5003 6.66667 12.5003Z" fill="#F04438"/>
<path d="M9.33268 12.5003C9.50949 12.5003 9.67906 12.4301 9.80409 12.3051C9.92911 12.18 9.99935 12.0105 9.99935 11.8337V7.83366C9.99935 7.65685 9.92911 7.48728 9.80409 7.36225C9.67906 7.23723 9.50949 7.16699 9.33268 7.16699C9.15587 7.16699 8.9863 7.23723 8.86128 7.36225C8.73625 7.48728 8.66602 7.65685 8.66602 7.83366V11.8337C8.66602 12.0105 8.73625 12.18 8.86128 12.3051C8.9863 12.4301 9.15587 12.5003 9.33268 12.5003Z" fill="#F04438"/>
</g>
<defs>
<clipPath id="clip0_6025_10173">
<rect width="16" height="16" fill="white" transform="translate(0 0.5)"/>
</clipPath>
</defs>
</svg>
