<svg width="22" height="24" viewBox="0 0 22 24" fill="none" xmlns="http://www.w3.org/2000/svg">
<path d="M18 8V16C18 16.553 17.553 17 17 17C16.447 17 16 16.553 16 16V8C16 7.447 16.447 7 17 7C17.553 7 18 7.447 18 8ZM13 0C12.447 0 12 0.447 12 1V23C12 23.553 12.447 24 13 24C13.553 24 14 23.553 14 23V1C14 0.447 13.553 0 13 0ZM21 4C20.447 4 20 4.447 20 5V19C20 19.553 20.447 20 21 20C21.553 20 22 19.553 22 19V5C22 4.447 21.553 4 21 4ZM9 4C8.447 4 8 4.447 8 5V19C8 19.553 8.447 20 9 20C9.553 20 10 19.553 10 19V5C10 4.447 9.553 4 9 4ZM5 7C4.447 7 4 7.447 4 8V16C4 16.553 4.447 17 5 17C5.553 17 6 16.553 6 16V8C6 7.447 5.553 7 5 7ZM1 9C0.447 9 0 9.447 0 10V14C0 14.553 0.447 15 1 15C1.553 15 2 14.553 2 14V10C2 9.447 1.553 9 1 9Z" fill="#1F1F1F"/>
</svg>
