<svg width="24" height="24" viewBox="0 0 24 24" fill="none" xmlns="http://www.w3.org/2000/svg">
<g clip-path="url(#clip0_6057_154)">
<path d="M9 24H1C0.734784 24 0.48043 23.8946 0.292893 23.7071C0.105357 23.5196 0 23.2652 0 23C0 22.7348 0.105357 22.4804 0.292893 22.2929C0.48043 22.1054 0.734784 22 1 22H9C9.26522 22 9.51957 22.1054 9.70711 22.2929C9.89464 22.4804 10 22.7348 10 23C10 23.2652 9.89464 23.5196 9.70711 23.7071C9.51957 23.8946 9.26522 24 9 24Z" fill="#1F1F1F"/>
<path d="M7 20H1C0.734784 20 0.48043 19.8946 0.292893 19.7071C0.105357 19.5196 0 19.2652 0 19C0 18.7348 0.105357 18.4804 0.292893 18.2929C0.48043 18.1054 0.734784 18 1 18H7C7.26522 18 7.51957 18.1054 7.70711 18.2929C7.89464 18.4804 8 18.7348 8 19C8 19.2652 7.89464 19.5196 7.70711 19.7071C7.51957 19.8946 7.26522 20 7 20Z" fill="#1F1F1F"/>
<path d="M5 16H1C0.734784 16 0.48043 15.8946 0.292893 15.7071C0.105357 15.5196 0 15.2652 0 15C0 14.7348 0.105357 14.4804 0.292893 14.2929C0.48043 14.1054 0.734784 14 1 14H5C5.26522 14 5.51957 14.1054 5.70711 14.2929C5.89464 14.4804 6 14.7348 6 15C6 15.2652 5.89464 15.5196 5.70711 15.7071C5.51957 15.8946 5.26522 16 5 16Z" fill="#1F1F1F"/>
<path d="M13 23.9551C12.7348 23.9669 12.4758 23.8729 12.2799 23.6937C12.084 23.5145 11.9673 23.2648 11.9555 22.9996C11.9437 22.7344 12.0377 22.4754 12.2169 22.2795C12.3961 22.0836 12.6458 21.9669 12.911 21.9551C14.8035 21.782 16.6074 21.0731 18.1115 19.9117C19.6157 18.7502 20.7577 17.1843 21.4039 15.3971C22.0501 13.61 22.1737 11.6758 21.7603 9.82092C21.3468 7.96609 20.4133 6.26747 19.0693 4.92402C17.7252 3.58057 16.0262 2.64791 14.1711 2.23528C12.3161 1.82266 10.3819 1.94715 8.59508 2.59417C6.80826 3.2412 5.24279 4.38397 4.08204 5.88864C2.92128 7.39331 2.2133 9.19758 2.04101 11.0901C2.01714 11.3543 1.88932 11.5981 1.68565 11.768C1.48199 11.9379 1.21917 12.02 0.955013 11.9961C0.690858 11.9722 0.447003 11.8444 0.277095 11.6408C0.107187 11.4371 0.0251437 11.1743 0.0490132 10.9101C0.327902 7.83342 1.78262 4.98281 4.11034 2.95168C6.43807 0.920545 9.45945 -0.134621 12.5456 0.00582676C15.6317 0.146274 18.5447 1.47151 20.6783 3.70568C22.812 5.93985 24.0017 8.91081 24 12.0001C24.0153 14.9985 22.9014 17.8927 20.8799 20.1071C18.8584 22.3216 16.0773 23.6939 13.09 23.9511C13.06 23.9541 13.029 23.9551 13 23.9551Z" fill="#1F1F1F"/>
<path d="M12 6C11.7348 6 11.4804 6.10536 11.2929 6.29289C11.1054 6.48043 11 6.73478 11 7V12C11.0001 12.2652 11.1055 12.5195 11.293 12.707L14.293 15.707C14.4816 15.8892 14.7342 15.99 14.9964 15.9877C15.2586 15.9854 15.5094 15.8802 15.6948 15.6948C15.8802 15.5094 15.9854 15.2586 15.9877 14.9964C15.99 14.7342 15.8892 14.4816 15.707 14.293L13 11.586V7C13 6.73478 12.8946 6.48043 12.7071 6.29289C12.5196 6.10536 12.2652 6 12 6Z" fill="#1F1F1F"/>
</g>
<defs>
<clipPath id="clip0_6057_154">
<rect width="24" height="24" fill="white"/>
</clipPath>
</defs>
</svg>
