<svg width="21" height="20" viewBox="0 0 21 20" fill="none" xmlns="http://www.w3.org/2000/svg">
<path d="M20.5 20H10.5C4.98583 20 0.5 15.5142 0.5 10C0.5 4.48583 4.98583 0 10.5 0C16.0142 0 20.5 4.48583 20.5 10V20ZM10.5 1.66667C5.905 1.66667 2.16667 5.405 2.16667 10C2.16667 14.595 5.905 18.3333 10.5 18.3333H18.8333V10C18.8333 5.405 15.095 1.66667 10.5 1.66667ZM9.035 15H5.5V11.4642L11.2325 5.7325C12.2075 4.7575 13.7925 4.7575 14.7675 5.7325C15.2392 6.20417 15.5 6.8325 15.5 7.5C15.5 8.1675 15.2392 8.79583 14.7675 9.26833L9.035 15ZM7.16667 13.3333H8.345L13.5892 8.08917C13.7467 7.93167 13.8333 7.7225 13.8333 7.5C13.8333 7.2775 13.7467 7.06833 13.5892 6.91083C13.2633 6.585 12.7367 6.58583 12.4108 6.91083L7.16667 12.1542V13.3333Z" fill="black"/>
</svg>
