<svg width="24" height="24" viewBox="0 0 24 24" fill="none" xmlns="http://www.w3.org/2000/svg">
<path d="M17 19C17 21.76 14.76 24 12 24H5C2.24 24 0 21.76 0 19V12C0 9.24001 2.24 7.00001 5 7.00001H6C6.55 7.00001 7 7.45001 7 8.00001C7 8.55001 6.55 9.00001 6 9.00001H5C3.35 9.00001 2 10.35 2 12V19C2 20.65 3.35 22 5 22H12C13.65 22 15 20.65 15 19C15 18.45 15.45 18 16 18C16.55 18 17 18.45 17 19ZM23.13 5.89001L17.72 0.300009C17.34 -0.0999909 16.7 -0.109991 16.31 0.280009C15.92 0.670009 15.9 1.30001 16.29 1.69001L21.43 6.99001H13C10.24 6.99001 8 9.23001 8 11.99V16.99C8 17.54 8.45 17.99 9 17.99C9.55 17.99 10 17.54 10 16.99V11.99C10 10.34 11.35 8.99001 13 8.99001H21.42L16.28 14.29C15.9 14.69 15.9 15.32 16.3 15.7C16.49 15.89 16.75 15.98 17 15.98C17.25 15.98 17.52 15.88 17.72 15.68L23.12 10.11C24.29 8.94001 24.29 7.04001 23.13 5.88001V5.89001Z" fill="#1F1F1F"/>
</svg>
