<svg width="72" height="72" viewBox="0 0 72 72" fill="none" xmlns="http://www.w3.org/2000/svg">
<path d="M61.4136 52.4424H5.52002V62.1576H61.4136C64.0968 62.1576 66.2712 59.9832 66.2712 57.3C66.2712 54.6168 64.0968 52.4424 61.4136 52.4424Z" fill="#1C4D9D"/>
<path d="M38.292 9.84229H33.468V46.3775H38.292V9.84229Z" fill="#1C4D9D"/>
<path d="M27.6456 20.2055C27.6456 14.5463 23.1216 9.90709 17.5536 9.84229H5.54639V14.7695H17.484C20.412 14.7959 22.7904 17.2343 22.7904 20.2055C22.7904 23.1815 20.4048 25.6199 17.4744 25.6415V25.6439H6.05759V30.5711H17.4816C20.4096 30.5951 22.7928 33.0335 22.7928 36.0071C22.7928 38.9807 20.412 41.4167 17.4864 41.4431H5.54639V46.3703H17.5536C23.1216 46.3055 27.6456 41.6639 27.6456 36.0071C27.6456 32.8487 26.2368 30.0095 24.024 28.1063C26.2368 26.2031 27.6456 23.3639 27.6456 20.2055Z" fill="#1C4D9D"/>
<path d="M49.392 31.5574H54.7224H54.756C55.0464 31.5502 57.684 31.4422 60.4056 30.1606C64.3224 28.3174 66.48 24.9118 66.48 20.5726C66.48 16.327 64.3488 13.0078 60.48 11.2294C57.804 10.0006 55.2168 9.91178 54.9288 9.90698H44.1888V14.7598H54.8352C55.0416 14.7694 56.8488 14.8726 58.56 15.691C60.6504 16.6894 61.6248 18.2422 61.6248 20.5726C61.6248 23.023 60.6144 24.6574 58.4472 25.7158C56.6952 26.5726 54.8448 26.6926 54.6408 26.7022H44.7504H44.6352H44.6064V29.191V29.2366V46.339H66.2544V41.5558H49.392V31.5574Z" fill="#1C4D9D"/>
<path d="M10.4448 60.9719C9.64084 60.9719 8.99524 60.7607 8.50564 60.3359C8.01604 59.9111 7.77124 59.3303 7.77124 58.5935H9.28084C9.28084 58.7591 9.31204 58.9055 9.37444 59.0327C9.43684 59.1599 9.52324 59.2655 9.63124 59.3447C9.73924 59.4239 9.86404 59.4839 10.0008 59.5223C10.14 59.5607 10.284 59.5823 10.4352 59.5823C10.7376 59.5823 10.9992 59.5103 11.22 59.3639C11.4408 59.2199 11.5512 59.0207 11.5512 58.7711C11.5512 58.6655 11.5248 58.5719 11.472 58.4903C11.4192 58.4087 11.3592 58.3415 11.2896 58.2935C11.22 58.2431 11.1144 58.1927 10.9728 58.1399C10.8312 58.0871 10.7112 58.0487 10.6128 58.0223C10.5144 57.9959 10.3656 57.9599 10.1688 57.9143C10.0104 57.8759 9.89284 57.8447 9.81364 57.8255C9.73444 57.8063 9.61684 57.7727 9.46324 57.7271C9.30964 57.6815 9.18964 57.6407 9.10804 57.6047C9.02644 57.5687 8.91844 57.5183 8.78644 57.4511C8.65444 57.3863 8.55364 57.3191 8.47924 57.2543C8.40724 57.1895 8.32564 57.1055 8.23684 57.0071C8.14804 56.9087 8.08084 56.8055 8.03524 56.6951C7.98964 56.5871 7.94884 56.4623 7.91764 56.3207C7.88404 56.1791 7.86724 56.0303 7.86724 55.8719C7.86724 55.2143 8.09044 54.7031 8.53924 54.3407C8.98564 53.9783 9.60004 53.7983 10.3752 53.7983C11.1576 53.7983 11.7696 53.9951 12.2064 54.3911C12.6432 54.7871 12.864 55.3295 12.864 56.0207H11.3832C11.3832 55.7375 11.2824 55.5215 11.0832 55.3751C10.8816 55.2263 10.6344 55.1519 10.3368 55.1519C10.0728 55.1519 9.84484 55.2071 9.65044 55.3199C9.45604 55.4327 9.36004 55.5935 9.36004 55.8047C9.36004 55.9031 9.38404 55.9919 9.43444 56.0663C9.48484 56.1431 9.54244 56.2055 9.60724 56.2535C9.67204 56.3039 9.77524 56.3519 9.91444 56.4023C10.0536 56.4527 10.1688 56.4887 10.2648 56.5103C10.3608 56.5343 10.5024 56.5679 10.6944 56.6135C10.9056 56.6663 11.064 56.7071 11.1672 56.7359C11.2728 56.7647 11.424 56.8151 11.6208 56.8847C11.8176 56.9543 11.9712 57.0215 12.0792 57.0863C12.1872 57.1511 12.3144 57.2399 12.4584 57.3479C12.6024 57.4559 12.7128 57.5759 12.7896 57.7031C12.864 57.8303 12.9312 57.9863 12.9864 58.1663C13.0416 58.3463 13.0704 58.5431 13.0704 58.7543C13.0704 59.2343 12.948 59.6471 12.7056 59.9879C12.4608 60.3311 12.1488 60.5807 11.7624 60.7391C11.3784 60.8927 10.9392 60.9719 10.4448 60.9719Z" fill="white"/>
<path d="M18.324 60.9816C17.6592 60.9816 17.0544 60.8256 16.5072 60.5136C15.96 60.2016 15.5328 59.7696 15.2232 59.22C14.9136 58.6704 14.76 58.0608 14.76 57.3888C14.76 56.3616 15.1008 55.5024 15.7824 54.8112C16.464 54.12 17.3112 53.7744 18.324 53.7744C19.1664 53.7744 19.8936 54.0288 20.5056 54.5352C21.1176 55.0416 21.5064 55.7064 21.6696 56.5296H20.1696C20.0784 56.2608 19.9416 56.0256 19.764 55.824C19.5864 55.6224 19.3752 55.4688 19.128 55.3608C18.8808 55.2528 18.612 55.1976 18.324 55.1976C17.7384 55.1976 17.2488 55.4064 16.8576 55.824C16.4664 56.2416 16.2696 56.7624 16.2696 57.384C16.2696 58.0056 16.4664 58.524 16.8576 58.9392C17.2488 59.3544 17.7384 59.5608 18.324 59.5608C18.7776 59.5608 19.1688 59.4336 19.5 59.1768C19.8288 58.92 20.0568 58.572 20.1816 58.1304H21.6912C21.5328 58.9872 21.1464 59.676 20.532 60.1992C19.9152 60.72 19.1808 60.9816 18.324 60.9816Z" fill="white"/>
<path d="M27.7537 53.9231H29.2441V60.8351H27.7537V57.9815H25.1569V60.8351H23.6569V53.9231H25.1569V56.5895H27.7537V53.9231Z" fill="white"/>
<path d="M34.9992 59.5704C35.4072 59.5704 35.7768 59.4768 36.1056 59.2896C36.4344 59.1024 36.6936 58.8408 36.8808 58.5048C37.068 58.1688 37.1616 57.7944 37.1616 57.3792C37.1616 56.7528 36.9552 56.232 36.5448 55.8144C36.1344 55.3968 35.6208 55.188 35.004 55.188C34.3896 55.188 33.8712 55.3968 33.4536 55.8144C33.036 56.232 32.8272 56.7528 32.8272 57.3792C32.8272 58.0056 33.036 58.5264 33.4536 58.944C33.8736 59.3616 34.3872 59.5704 34.9992 59.5704ZM34.9992 60.9816C33.9456 60.9816 33.0696 60.6384 32.3688 59.9496C31.668 59.2608 31.3176 58.404 31.3176 57.3768C31.3176 56.3496 31.668 55.4928 32.3688 54.804C33.0696 54.1152 33.9456 53.772 34.9992 53.772C35.6904 53.772 36.3168 53.928 36.8808 54.24C37.4424 54.552 37.884 54.984 38.1984 55.5336C38.5152 56.0832 38.6712 56.6976 38.6712 57.3744C38.6712 58.4088 38.3232 59.2656 37.6248 59.952C36.9288 60.6408 36.0528 60.9816 34.9992 60.9816Z" fill="white"/>
<path d="M44.0136 59.5704C44.4216 59.5704 44.7912 59.4768 45.12 59.2896C45.4488 59.1024 45.708 58.8408 45.8952 58.5048C46.0824 58.1688 46.176 57.7944 46.176 57.3792C46.176 56.7528 45.9696 56.232 45.5592 55.8144C45.1488 55.3968 44.6352 55.188 44.0184 55.188C43.404 55.188 42.8856 55.3968 42.468 55.8144C42.0504 56.232 41.8416 56.7528 41.8416 57.3792C41.8416 58.0056 42.0504 58.5264 42.468 58.944C42.8856 59.3616 43.4016 59.5704 44.0136 59.5704ZM44.0136 60.9816C42.96 60.9816 42.084 60.6384 41.3832 59.9496C40.6824 59.2608 40.332 58.404 40.332 57.3768C40.332 56.3496 40.6824 55.4928 41.3832 54.804C42.084 54.1152 42.96 53.772 44.0136 53.772C44.7048 53.772 45.3312 53.928 45.8952 54.24C46.4568 54.552 46.8984 54.984 47.2128 55.5336C47.5296 56.0832 47.6856 56.6976 47.6856 57.3744C47.6856 58.4088 47.3376 59.2656 46.6392 59.952C45.9432 60.6408 45.0672 60.9816 44.0136 60.9816Z" fill="white"/>
<path d="M51.2496 59.4431H53.8968V60.8351H49.7496V53.9231H51.2496V59.4431Z" fill="white"/>
</svg>
