<svg width="19" height="18" viewBox="0 0 19 18" fill="none" xmlns="http://www.w3.org/2000/svg">
<g clip-path="url(#clip0_6244_1828)">
<path d="M18.5008 8.43567C18.3924 6.68069 17.7727 4.99581 16.7182 3.58874C15.6638 2.18168 14.2206 1.11394 12.5666 0.517169C10.9127 -0.0796043 9.12022 -0.179327 7.41027 0.230294C5.70031 0.639916 4.1476 1.54097 2.94356 2.82239C1.73952 4.1038 0.936777 5.70954 0.634303 7.44167C0.331829 9.17379 0.542844 10.9566 1.24133 12.5702C1.93982 14.1839 3.09525 15.5578 4.56518 16.5227C6.0351 17.4876 7.75526 18.0013 9.5136 18.0004H14.7508C15.7451 17.9994 16.6984 17.604 17.4014 16.901C18.1044 16.1979 18.4999 15.2447 18.5008 14.2504V8.43567ZM17.0008 14.2504C17.0008 14.8472 16.7638 15.4195 16.3418 15.8414C15.9199 16.2634 15.3476 16.5004 14.7508 16.5004H9.5136C8.4553 16.4999 7.40898 16.2764 6.44287 15.8444C5.47676 15.4124 4.61255 14.7816 3.9066 13.9932C3.19723 13.2051 2.66454 12.2745 2.34427 11.2638C2.02399 10.253 1.92352 9.18544 2.0496 8.13267C2.24867 6.47213 2.99474 4.92506 4.17018 3.73537C5.34562 2.54567 6.88357 1.78101 8.5416 1.56192C8.86502 1.52139 9.19064 1.50085 9.5166 1.50042C11.2645 1.49566 12.9582 2.10635 14.3008 3.22542C15.085 3.87713 15.7286 4.68129 16.1927 5.58915C16.6569 6.497 16.9318 7.48965 17.0008 8.50692V14.2504Z" fill="white"/>
<path d="M6.5 6.75H9.5C9.69891 6.75 9.88968 6.67098 10.0303 6.53033C10.171 6.38968 10.25 6.19891 10.25 6C10.25 5.80109 10.171 5.61032 10.0303 5.46967C9.88968 5.32902 9.69891 5.25 9.5 5.25H6.5C6.30109 5.25 6.11032 5.32902 5.96967 5.46967C5.82902 5.61032 5.75 5.80109 5.75 6C5.75 6.19891 5.82902 6.38968 5.96967 6.53033C6.11032 6.67098 6.30109 6.75 6.5 6.75Z" fill="white"/>
<path d="M12.5 8.25H6.5C6.30109 8.25 6.11032 8.32902 5.96967 8.46967C5.82902 8.61032 5.75 8.80109 5.75 9C5.75 9.19891 5.82902 9.38968 5.96967 9.53033C6.11032 9.67098 6.30109 9.75 6.5 9.75H12.5C12.6989 9.75 12.8897 9.67098 13.0303 9.53033C13.171 9.38968 13.25 9.19891 13.25 9C13.25 8.80109 13.171 8.61032 13.0303 8.46967C12.8897 8.32902 12.6989 8.25 12.5 8.25Z" fill="white"/>
<path d="M12.5 11.25H6.5C6.30109 11.25 6.11032 11.329 5.96967 11.4697C5.82902 11.6103 5.75 11.8011 5.75 12C5.75 12.1989 5.82902 12.3897 5.96967 12.5303C6.11032 12.671 6.30109 12.75 6.5 12.75H12.5C12.6989 12.75 12.8897 12.671 13.0303 12.5303C13.171 12.3897 13.25 12.1989 13.25 12C13.25 11.8011 13.171 11.6103 13.0303 11.4697C12.8897 11.329 12.6989 11.25 12.5 11.25Z" fill="white"/>
</g>
<defs>
<clipPath id="clip0_6244_1828">
<rect width="18" height="18" fill="white" transform="translate(0.5)"/>
</clipPath>
</defs>
</svg>
