<svg width="30" height="30" viewBox="0 0 40 40" fill="none" xmlns="http://www.w3.org/2000/svg">
  <circle cx="20" cy="20" r="20" fill="#EAECF0"/>
  <mask id="mask0_6251_99" style="mask-type:alpha" maskUnits="userSpaceOnUse" x="8" y="8" width="24" height="24">
    <rect x="8" y="8" width="24" height="24" fill="#D9D9D9"/>
  </mask>
  <g mask="url(#mask0_6251_99)">
    <path d="M20 20C18.9 20 17.9583 19.6083 17.175 18.825C16.3917 18.0417 16 17.1 16 16C16 14.9 16.3917 13.9583 17.175 13.175C17.9583 12.3917 18.9 12 20 12C21.1 12 22.0417 12.3917 22.825 13.175C23.6083 13.9583 24 14.9 24 16C24 17.1 23.6083 18.0417 22.825 18.825C22.0417 19.6083 21.1 20 20 20ZM12 28V25.2C12 24.6333 12.1458 24.1125 12.4375 23.6375C12.7292 23.1625 13.1167 22.8 13.6 22.55C14.6333 22.0333 15.6833 21.6458 16.75 21.3875C17.8167 21.1292 18.9 21 20 21C21.1 21 22.1833 21.1292 23.25 21.3875C24.3167 21.6458 25.3667 22.0333 26.4 22.55C26.8833 22.8 27.2708 23.1625 27.5625 23.6375C27.8542 24.1125 28 24.6333 28 25.2V28H12Z" fill="#98A2B3"/>
  </g>
</svg>
