<svg width="16" height="17" viewBox="0 0 16 17" fill="none" xmlns="http://www.w3.org/2000/svg">
<mask id="mask0_6272_870" style="mask-type:alpha" maskUnits="userSpaceOnUse" x="0" y="0" width="16" height="17">
<rect y="0.5" width="16" height="16" fill="#D9D9D9"/>
</mask>
<g mask="url(#mask0_6272_870)">
<path d="M1.33398 16.4997V13.833H14.6673V16.4997H1.33398ZM4.00065 11.1663H4.93398L10.134 5.98301L9.18398 5.03301L4.00065 10.233V11.1663ZM2.66732 12.4997V9.66634L10.134 2.21634C10.2562 2.09412 10.3979 1.99967 10.559 1.93301C10.7201 1.86634 10.8895 1.83301 11.0673 1.83301C11.2451 1.83301 11.4173 1.86634 11.584 1.93301C11.7507 1.99967 11.9007 2.09967 12.034 2.23301L12.9507 3.16634C13.084 3.28856 13.1812 3.43301 13.2423 3.59967C13.3034 3.76634 13.334 3.93856 13.334 4.11634C13.334 4.28301 13.3034 4.4469 13.2423 4.60801C13.1812 4.76912 13.084 4.91634 12.9507 5.04967L5.50065 12.4997H2.66732Z" fill="white"/>
</g>
</svg>
