<svg width="24" height="24" viewBox="0 0 24 24" fill="none" xmlns="http://www.w3.org/2000/svg">
<path d="M17 18.9995C17 21.7595 14.76 23.9995 12 23.9995H5C2.24 23.9995 0 21.7595 0 18.9995V11.9995C0 9.23952 2.24 6.99952 5 6.99952H6C6.55 6.99952 7 7.44952 7 7.99952C7 8.54952 6.55 8.99952 6 8.99952H5C3.35 8.99952 2 10.3495 2 11.9995V18.9995C2 20.6495 3.35 21.9995 5 21.9995H12C13.65 21.9995 15 20.6495 15 18.9995C15 18.4495 15.45 17.9995 16 17.9995C16.55 17.9995 17 18.4495 17 18.9995ZM23.13 5.88952L17.72 0.299521C17.34 -0.100479 16.7 -0.110479 16.31 0.279521C15.92 0.669521 15.9 1.29952 16.29 1.68952L21.43 6.98952H13C10.24 6.98952 8 9.22952 8 11.9895V16.9895C8 17.5395 8.45 17.9895 9 17.9895C9.55 17.9895 10 17.5395 10 16.9895V11.9895C10 10.3395 11.35 8.98952 13 8.98952H21.42L16.28 14.2895C15.9 14.6895 15.9 15.3195 16.3 15.6995C16.49 15.8895 16.75 15.9795 17 15.9795C17.25 15.9795 17.52 15.8795 17.72 15.6795L23.12 10.1095C24.29 8.93952 24.29 7.03952 23.13 5.87952V5.88952Z" fill="white"/>
</svg>
