<svg width="17" height="16" viewBox="0 0 17 16" fill="none" xmlns="http://www.w3.org/2000/svg">
<path d="M1.46312 4.44567C1.23989 4.50945 1.03718 4.63042 0.875056 4.7966C0.71293 4.96277 0.597005 5.1684 0.538751 5.39314C0.480496 5.61787 0.481931 5.85392 0.542914 6.07793C0.603897 6.30194 0.722315 6.50615 0.886449 6.67034L3.16112 8.94234V13.333H7.55645L9.84645 15.6197C9.96936 15.7436 10.1156 15.8421 10.2767 15.9094C10.4377 15.9766 10.6105 16.0114 10.7851 16.0117C10.8999 16.0114 11.0141 15.9967 11.1251 15.9677C11.3498 15.9111 11.5555 15.7963 11.7217 15.6349C11.8879 15.4735 12.0086 15.2712 12.0718 15.0483L16.4944 0.0136719L1.46312 4.44567ZM1.83378 5.72767L13.1858 2.38101L4.49578 11.057V8.39034L1.83378 5.72767ZM10.7938 14.677L8.10912 11.9997H5.44245L14.1311 3.31834L10.7938 14.677Z" fill="white"/>
</svg>
