<svg width="18" height="18" viewBox="0 0 18 18" fill="none" xmlns="http://www.w3.org/2000/svg">
<path d="M14.25 2.25023H9.354C9.2385 2.25023 9.1215 2.22323 9.01875 2.17148L6.654 0.989477C6.34275 0.833477 5.99475 0.750977 5.646 0.750977H3.75C1.68225 0.750227 0 2.43248 0 4.50023V13.5002C0 15.568 1.68225 17.2502 3.75 17.2502H6C6.414 17.2502 6.75 16.915 6.75 16.5002C6.75 16.0855 6.414 15.7502 6 15.7502H3.75C2.5095 15.7502 1.5 14.7407 1.5 13.5002V6.75023H16.5V13.5002C16.5 14.7407 15.4905 15.7502 14.25 15.7502H12C11.586 15.7502 11.25 16.0855 11.25 16.5002C11.25 16.915 11.586 17.2502 12 17.2502H14.25C16.3177 17.2502 18 15.568 18 13.5002V6.00023C18 3.93248 16.3177 2.25023 14.25 2.25023ZM1.5 4.50023C1.5 3.25973 2.5095 2.25023 3.75 2.25023H5.646C5.7615 2.25023 5.877 2.27723 5.98125 2.32973L8.34825 3.51248C8.6595 3.66773 9.00675 3.74948 9.354 3.74948H14.25C15.2265 3.74948 16.0515 4.37873 16.362 5.24948H1.5V4.50023ZM10.7198 11.9222L9.75 10.9525V16.5002C9.75 16.915 9.414 17.2502 9 17.2502C8.586 17.2502 8.25 16.915 8.25 16.5002V10.9525L7.28025 11.9222C7.134 12.0685 6.942 12.142 6.75 12.142C6.558 12.142 6.366 12.0685 6.21975 11.9222C5.9265 11.629 5.9265 11.155 6.21975 10.8617L7.4295 9.65198C8.268 8.81273 9.73125 8.81273 10.5705 9.65198L11.7802 10.8617C12.0735 11.155 12.0735 11.629 11.7802 11.9222C11.487 12.2155 11.013 12.2155 10.7198 11.9222Z" fill="white"/>
</svg>
