<svg width="20" height="20" viewBox="0 0 20 20" fill="none" xmlns="http://www.w3.org/2000/svg">
<path d="M20 20H10C4.48583 20 0 15.5142 0 10C0 4.48583 4.48583 0 10 0C15.5142 0 20 4.48583 20 10V20ZM10 1.66667C5.405 1.66667 1.66667 5.405 1.66667 10C1.66667 14.595 5.405 18.3333 10 18.3333H18.3333V10C18.3333 5.405 14.595 1.66667 10 1.66667ZM8.535 15H5V11.4642L10.7325 5.7325C11.7075 4.7575 13.2925 4.7575 14.2675 5.7325C14.7392 6.20417 15 6.8325 15 7.5C15 8.1675 14.7392 8.79583 14.2675 9.26833L8.535 15ZM6.66667 13.3333H7.845L13.0892 8.08917C13.2467 7.93167 13.3333 7.7225 13.3333 7.5C13.3333 7.2775 13.2467 7.06833 13.0892 6.91083C12.7633 6.585 12.2367 6.58583 11.9108 6.91083L6.66667 12.1542V13.3333Z" fill="white"/>
</svg>
